<?xml version="1.0" encoding="UTF-8"?>
<svg version="1.1" xmlns="http://www.w3.org/2000/svg" width="373" height="240">
<path d="M0 0 C123.09 0 246.18 0 373 0 C373 79.2 373 158.4 373 240 C249.91 240 126.82 240 0 240 C0 160.8 0 81.6 0 0 Z " fill="#262626" transform="translate(0,0)"/>
<path d="M0 0 C123.09 0 246.18 0 373 0 C373 79.2 373 158.4 373 240 C249.91 240 126.82 240 0 240 C0 160.8 0 81.6 0 0 Z M236.41015625 12.12109375 C232.38127342 17.48921741 232.7354148 22.89963889 232.8046875 29.33203125 C232.8075174 30.32377853 232.81034729 31.31552582 232.81326294 32.33732605 C232.82443196 35.49584159 232.84953073 38.65407057 232.875 41.8125 C232.88503403 43.95767819 232.89415914 46.10286083 232.90234375 48.24804688 C232.92436055 53.49879521 232.95780557 58.74937713 233 64 C232.26515381 63.92483154 231.53030762 63.84966309 230.77319336 63.7722168 C203.5095658 61.00591729 176.13441644 58.31506141 148.74145508 57.29052734 C145.67855089 57.17184117 142.70566925 56.95700617 139.6706543 56.51367188 C136.29322388 56.04103379 132.98549483 55.75858595 129.58203125 55.5703125 C128.34630371 55.49876953 127.11057617 55.42722656 125.83740234 55.35351562 C124.85667755 55.29804565 124.85667755 55.29804565 123.85614014 55.24145508 C111.17785224 54.51899373 98.52682571 53.58842988 85.875 52.5 C74.40107633 51.51746055 62.92707256 50.59330293 51.4375 49.8125 C50.23786621 49.72871094 49.03823242 49.64492188 47.80224609 49.55859375 C28.67910987 48.11158481 28.67910987 48.11158481 12.125 56.75 C6.47120054 62.11411716 3.3117491 68.06748021 2.89890099 75.92389297 C2.84870436 78.29030159 2.83054145 80.65503905 2.82299805 83.02197266 C2.81642685 83.9218692 2.80985565 84.82176575 2.80308533 85.74893188 C2.7834114 88.72064304 2.77170168 91.69230374 2.76171875 94.6640625 C2.75764322 95.68280834 2.7535677 96.70155418 2.74936867 97.75117111 C2.72853115 103.14547267 2.71422049 108.53974897 2.70483398 113.93408203 C2.69378615 119.48536336 2.6593981 125.03624204 2.61966228 130.58738136 C2.59342503 134.87357288 2.58513574 139.15966955 2.58155251 143.4459343 C2.57670343 145.49111011 2.56513777 147.53628217 2.54651451 149.58137894 C2.3520874 169.05212454 2.3520874 169.05212454 12.203125 185.34765625 C18.45163362 191.09356744 24.24416809 193.36576182 32.62890625 193.28125 C33.84870934 193.27357605 33.84870934 193.27357605 35.09315491 193.26574707 C48.88380624 193.04662985 62.65441985 191.76710698 76.39967728 190.6966629 C80.72038465 190.36183934 85.04172535 190.03541092 89.36303711 189.70849609 C94.99122937 189.28228943 100.61936726 188.85541676 106.24726868 188.42538452 C122.28035054 187.20080965 138.31555825 186.00596019 154.3515625 184.8203125 C155.58726801 184.72894264 156.82297352 184.63757278 158.09612465 184.54343414 C164.29413514 184.0852446 170.49216975 183.62738231 176.69021606 183.16967773 C187.44479276 182.3753446 198.19916602 181.57826562 208.95354843 180.78130722 C214.0928035 180.4004824 219.23207093 180.01982445 224.37133789 179.63916016 C226.06254584 179.51388634 227.75375373 179.38861178 229.44496155 179.26333618 C230.61812424 179.17643524 231.79128693 179.0895343 233 179 C232.98428955 180.26070312 232.9685791 181.52140625 232.95239258 182.8203125 C232.89784875 187.52418561 232.86356124 192.22803107 232.83520508 196.93212891 C232.82017401 198.9631013 232.79974353 200.99404154 232.77368164 203.02490234 C232.73704768 205.95418259 232.72021649 208.88303144 232.70703125 211.8125 C232.69154739 212.71178223 232.67606354 213.61106445 232.66011047 214.53759766 C232.65841451 220.97654842 233.43619205 226.76985583 237.578125 231.98828125 C243.82503388 236.93618338 249.26490415 239.29544835 257.27734375 239.49609375 C266.29976045 237.85212399 271.93972275 231.62770616 278.13208008 225.36962891 C279.12262148 224.38287657 280.11401945 223.39698347 281.10620117 222.41188049 C283.78248765 219.74948634 286.44613448 217.07477706 289.10719514 214.39717531 C291.90082227 211.58963883 294.70465792 208.79232857 297.50700378 205.99349976 C302.20856121 201.29463914 306.90199268 196.58778064 311.59057617 191.87597656 C317.00492484 186.43499834 322.43162248 181.00658281 327.86516458 175.58477652 C333.10260957 170.35812259 338.33151587 165.12300699 343.55649376 159.88389206 C345.77580252 157.65883738 347.99798482 155.43671285 350.22254372 153.2169075 C352.84211917 150.60211592 355.45409902 147.97996189 358.06047821 145.35201836 C359.47069162 143.93361773 360.88824169 142.52252316 362.30601501 141.11167908 C363.14840729 140.25938217 363.99079956 139.40708527 364.85871887 138.52896118 C365.59037168 137.79487848 366.32202448 137.06079578 367.07584858 136.30446815 C370.91898766 131.70171624 372.43028756 127.58247883 372.4375 121.625 C372.45683594 120.56539063 372.47617187 119.50578125 372.49609375 118.4140625 C371.16410472 109.24746086 365.27133888 103.70300999 358.94873047 97.46289062 C358.03452332 96.54488678 357.12031616 95.62688293 356.17840576 94.68106079 C353.68765463 92.18067676 351.18468707 89.69287087 348.67895269 87.20751381 C346.05476205 84.60096835 343.44119922 81.98380497 340.82620239 79.36804199 C336.43991773 74.98362542 332.04598351 70.60699752 327.64697266 66.23535156 C322.55736928 61.17729182 317.4783891 56.10876058 312.40526664 51.03417444 C307.52141006 46.14909907 302.6318746 41.26975202 297.73910904 36.39360046 C295.65703903 34.31860021 293.576684 32.24190246 291.49761581 30.16389465 C288.6018791 27.27053228 285.69772475 24.3857687 282.79248047 21.50195312 C281.92698578 20.63555206 281.06149109 19.769151 280.16976929 18.87649536 C279.38187012 18.09712616 278.59397095 17.31775696 277.78219604 16.51477051 C277.09604658 15.83197273 276.40989712 15.14917496 275.70295525 14.44568634 C274.11819342 12.78427539 274.11819342 12.78427539 272 13 C271.690625 12.13375 271.690625 12.13375 271.375 11.25 C268.44946666 6.46276362 263.28408365 4.2940613 258 3 C249.04910325 1.98669093 242.49616639 5.91998177 236.41015625 12.12109375 Z " fill="#FEFEFE" transform="translate(0,0)"/>
</svg>
